<?xml version="1.0" encoding="UTF-8" standalone="no"?>
<svg xmlns="http://www.w3.org/2000/svg" width="840" height="640" viewBox="0 0 840 640">
<rect width="100%" height="100%" fill="#FAF9F6"/>
<defs>

  <linearGradient id="grad_input" x1="0%" y1="0%" x2="0%" y2="100%">
    <stop offset="0%" stop-color="#E6ECEE"/><stop offset="100%" stop-color="#D1DFE4"/>
  </linearGradient>
  <linearGradient id="grad_decomp" x1="0%" y1="0%" x2="0%" y2="100%">
    <stop offset="0%" stop-color="#698C7F"/><stop offset="100%" stop-color="#527065"/>
  </linearGradient>
  <linearGradient id="grad_seasonal" x1="0%" y1="0%" x2="0%" y2="100%">
    <stop offset="0%" stop-color="#F7C9AB"/><stop offset="100%" stop-color="#EB9B65"/>
  </linearGradient>
  <linearGradient id="grad_trend" x1="0%" y1="0%" x2="0%" y2="100%">
    <stop offset="0%" stop-color="#B8C9E8"/><stop offset="100%" stop-color="#8AA8D8"/>
  </linearGradient>
  <linearGradient id="grad_conv" x1="0%" y1="0%" x2="0%" y2="100%">
    <stop offset="0%" stop-color="#FCF1CD"/><stop offset="100%" stop-color="#F6CD71"/>
  </linearGradient>
  <linearGradient id="grad_green" x1="0%" y1="0%" x2="0%" y2="100%">
    <stop offset="0%" stop-color="#DCF2DC"/><stop offset="100%" stop-color="#AEDCAE"/>
  </linearGradient>
  <linearGradient id="grad_add" x1="0%" y1="0%" x2="0%" y2="100%">
    <stop offset="0%" stop-color="#F9DCE2"/><stop offset="100%" stop-color="#F1B8C8"/>
  </linearGradient>
  <linearGradient id="grad_out" x1="0%" y1="0%" x2="0%" y2="100%">
    <stop offset="0%" stop-color="#CCEBD0"/><stop offset="100%" stop-color="#A1DBA6"/>
  </linearGradient>

</defs>
<g>
<rect x="330" y="36" width="180" height="44" rx="8" ry="8" fill="url(#grad_input)" stroke="#A9C1C9" stroke-width="1.2"/><text x="420.0" y="63.0" font-family="sans-serif" font-size="12" font-weight="600" fill="#3E5158" text-anchor="middle">Input x</text>
<rect x="330" y="108" width="180" height="42" rx="8" ry="8" fill="url(#grad_decomp)" stroke="#40574F" stroke-width="1.2"/><text x="420.0" y="134.0" font-family="sans-serif" font-size="12" font-weight="600" fill="#FFFFFF" text-anchor="middle">SeriesDecomp</text>
<path d="M 420 80 L 420 100" fill="none" stroke="#8E857C" stroke-width="1.5"/><path d="M 420 108 L 415 101 L 425 101 Z" fill="#8E857C"/>
<path d="M 420 150 C 420 165.4, 235 157.4, 235 170" fill="none" stroke="#8E857C" stroke-width="1.5"/><path d="M 235 178 L 230 171 L 240 171 Z" fill="#8E857C"/>
<path d="M 420 150 C 420 165.4, 605 157.4, 605 170" fill="none" stroke="#8E857C" stroke-width="1.5"/><path d="M 605 178 L 600 171 L 610 171 Z" fill="#8E857C"/>
<rect x="160" y="178" width="150" height="38" rx="8" ry="8" fill="url(#grad_seasonal)" stroke="#EB9B65" stroke-width="1.2"/><text x="235.0" y="202.0" font-family="sans-serif" font-size="12" font-weight="600" fill="#5D2B09" text-anchor="middle">Seasonal</text>
<path d="M 235 216 L 235 220" fill="none" stroke="#8E857C" stroke-width="1.5"/><path d="M 235 228 L 230 221 L 240 221 Z" fill="#8E857C"/>
<rect x="160" y="228" width="150" height="38" rx="8" ry="8" fill="url(#grad_conv)" stroke="#DBA634" stroke-width="1.2"/><text x="235.0" y="252.0" font-family="sans-serif" font-size="12" font-weight="600" fill="#644300" text-anchor="middle">TemporalBlock 1</text>
<path d="M 235 266 L 235 270" fill="none" stroke="#8E857C" stroke-width="1.5"/><path d="M 235 278 L 230 271 L 240 271 Z" fill="#8E857C"/>
<rect x="160" y="278" width="150" height="38" rx="8" ry="8" fill="url(#grad_conv)" stroke="#DBA634" stroke-width="1.2"/><text x="235.0" y="302.0" font-family="sans-serif" font-size="12" font-weight="600" fill="#644300" text-anchor="middle">TemporalBlock 2</text>
<path d="M 235 316 L 235 320" fill="none" stroke="#8E857C" stroke-width="1.5"/><path d="M 235 328 L 230 321 L 240 321 Z" fill="#8E857C"/>
<rect x="175" y="328" width="120" height="38" rx="8" ry="8" fill="url(#grad_green)" stroke="#80B880" stroke-width="1.2"/><text x="235.0" y="352.0" font-family="sans-serif" font-size="12" font-weight="600" fill="#1E461E" text-anchor="middle">Last t</text>
<path d="M 235 366 L 235 370" fill="none" stroke="#8E857C" stroke-width="1.5"/><path d="M 235 378 L 230 371 L 240 371 Z" fill="#8E857C"/>
<rect x="160" y="378" width="150" height="38" rx="8" ry="8" fill="url(#grad_green)" stroke="#80B880" stroke-width="1.2"/><text x="235.0" y="402.0" font-family="sans-serif" font-size="12" font-weight="600" fill="#1E461E" text-anchor="middle">Linear</text>
<rect x="530" y="178" width="150" height="38" rx="8" ry="8" fill="url(#grad_trend)" stroke="#8AA8D8" stroke-width="1.2"/><text x="605.0" y="202.0" font-family="sans-serif" font-size="12" font-weight="600" fill="#1E3A5F" text-anchor="middle">Trend</text>
<path d="M 605 216 L 605 220" fill="none" stroke="#8E857C" stroke-width="1.5"/><path d="M 605 228 L 600 221 L 610 221 Z" fill="#8E857C"/>
<rect x="530" y="228" width="150" height="38" rx="8" ry="8" fill="url(#grad_conv)" stroke="#DBA634" stroke-width="1.2"/><text x="605.0" y="252.0" font-family="sans-serif" font-size="12" font-weight="600" fill="#644300" text-anchor="middle">TemporalBlock 1</text>
<path d="M 605 266 L 605 270" fill="none" stroke="#8E857C" stroke-width="1.5"/><path d="M 605 278 L 600 271 L 610 271 Z" fill="#8E857C"/>
<rect x="530" y="278" width="150" height="38" rx="8" ry="8" fill="url(#grad_conv)" stroke="#DBA634" stroke-width="1.2"/><text x="605.0" y="302.0" font-family="sans-serif" font-size="12" font-weight="600" fill="#644300" text-anchor="middle">TemporalBlock 2</text>
<path d="M 605 316 L 605 320" fill="none" stroke="#8E857C" stroke-width="1.5"/><path d="M 605 328 L 600 321 L 610 321 Z" fill="#8E857C"/>
<rect x="545" y="328" width="120" height="38" rx="8" ry="8" fill="url(#grad_green)" stroke="#80B880" stroke-width="1.2"/><text x="605.0" y="352.0" font-family="sans-serif" font-size="12" font-weight="600" fill="#1E461E" text-anchor="middle">Last t</text>
<path d="M 605 366 L 605 370" fill="none" stroke="#8E857C" stroke-width="1.5"/><path d="M 605 378 L 600 371 L 610 371 Z" fill="#8E857C"/>
<rect x="530" y="378" width="150" height="38" rx="8" ry="8" fill="url(#grad_green)" stroke="#80B880" stroke-width="1.2"/><text x="605.0" y="402.0" font-family="sans-serif" font-size="12" font-weight="600" fill="#1E461E" text-anchor="middle">Linear</text>
<rect x="370" y="444" width="100" height="38" rx="8" ry="8" fill="url(#grad_add)" stroke="#D996A7" stroke-width="1.2"/><text x="420.0" y="468.0" font-family="sans-serif" font-size="12" font-weight="600" fill="#863548" text-anchor="middle">Add</text>
<path d="M 235 416 L 235 430 L 420 430 L 420 436" fill="none" stroke="#EB9D68" stroke-width="2"/><path d="M 420 444 L 415 437 L 425 437 Z" fill="#EB9D68"/>
<path d="M 605 416 L 605 430 L 420 430" fill="none" stroke="#EB9D68" stroke-width="2"/>
<rect x="330" y="518" width="180" height="44" rx="8" ry="8" fill="url(#grad_out)" stroke="#74B87C" stroke-width="1.2"/><text x="420.0" y="545.0" font-family="sans-serif" font-size="12" font-weight="600" fill="#163E16" text-anchor="middle">Output</text>
<path d="M 420 482 L 420 510" fill="none" stroke="#8E857C" stroke-width="1.5"/><path d="M 420 518 L 415 511 L 425 511 Z" fill="#8E857C"/>
</g></svg>