<?xml version="1.0" encoding="UTF-8" standalone="no"?>
<svg xmlns="http://www.w3.org/2000/svg" width="920" height="720" viewBox="0 0 920 720">
<rect width="100%" height="100%" fill="#FAF9F6"/>
<defs>

  <linearGradient id="grad_input" x1="0%" y1="0%" x2="0%" y2="100%">
    <stop offset="0%" stop-color="#E6ECEE"/><stop offset="100%" stop-color="#D1DFE4"/>
  </linearGradient>
  <linearGradient id="grad_pink" x1="0%" y1="0%" x2="0%" y2="100%">
    <stop offset="0%" stop-color="#F9DCE2"/><stop offset="100%" stop-color="#F1B8C8"/>
  </linearGradient>
  <linearGradient id="grad_conv" x1="0%" y1="0%" x2="0%" y2="100%">
    <stop offset="0%" stop-color="#FCF1CD"/><stop offset="100%" stop-color="#F6CD71"/>
  </linearGradient>
  <linearGradient id="grad_green" x1="0%" y1="0%" x2="0%" y2="100%">
    <stop offset="0%" stop-color="#DCF2DC"/><stop offset="100%" stop-color="#AEDCAE"/>
  </linearGradient>
  <linearGradient id="grad_out" x1="0%" y1="0%" x2="0%" y2="100%">
    <stop offset="0%" stop-color="#CCEBD0"/><stop offset="100%" stop-color="#A1DBA6"/>
  </linearGradient>

</defs>
<g>
<rect x="370" y="56" width="180" height="48" rx="8" ry="8" fill="url(#grad_input)" stroke="#A9C1C9" stroke-width="1.2"/><text x="460.0" y="85.0" font-family="sans-serif" font-size="12" font-weight="600" fill="#3E5158" text-anchor="middle">Input x</text>
<rect x="400" y="130" width="120" height="36" rx="8" ry="8" fill="url(#grad_pink)" stroke="#D996A7" stroke-width="1.2"/><text x="460.0" y="153.0" font-family="sans-serif" font-size="12" font-weight="600" fill="#863548" text-anchor="middle">Transpose</text>
<path d="M 460 104 C 460 115.7, 460 118.3, 460 123" fill="none" stroke="#8E857C" stroke-width="1.5"/><path d="M 460 130 L 455 123 L 465 123 Z" fill="#8E857C"/>
<rect x="370.0" y="188" width="180" height="42" rx="8" ry="8" fill="url(#grad_conv)" stroke="#DBA634" stroke-width="1.2"/><text x="460.0" y="214.0" font-family="sans-serif" font-size="12" font-weight="600" fill="#644300" text-anchor="middle">TemporalBlock 1</text>
<path d="M 460 166 C 460 175.9, 460 178.1, 460 181" fill="none" stroke="#8E857C" stroke-width="1.5"/><path d="M 460 188 L 455 181 L 465 181 Z" fill="#8E857C"/>
<rect x="370.0" y="252" width="180" height="42" rx="8" ry="8" fill="url(#grad_conv)" stroke="#DBA634" stroke-width="1.2"/><text x="460.0" y="278.0" font-family="sans-serif" font-size="12" font-weight="600" fill="#644300" text-anchor="middle">TemporalBlock 2</text>
<path d="M 460 248 C 460 249.8, 460 250.2, 460 245" fill="none" stroke="#8E857C" stroke-width="1.5"/><path d="M 460 252 L 455 245 L 465 245 Z" fill="#8E857C"/>
<rect x="370.0" y="316" width="180" height="42" rx="8" ry="8" fill="url(#grad_conv)" stroke="#DBA634" stroke-width="1.2"/><text x="460.0" y="342.0" font-family="sans-serif" font-size="12" font-weight="600" fill="#644300" text-anchor="middle">TemporalBlock 3</text>
<path d="M 460 312 C 460 313.8, 460 314.2, 460 309" fill="none" stroke="#8E857C" stroke-width="1.5"/><path d="M 460 316 L 455 309 L 465 309 Z" fill="#8E857C"/>
<rect x="390" y="400" width="140" height="42" rx="8" ry="8" fill="url(#grad_green)" stroke="#80B880" stroke-width="1.2"/><text x="460.0" y="426.0" font-family="sans-serif" font-size="12" font-weight="600" fill="#1E461E" text-anchor="middle">Last t</text>
<path d="M 460 376 C 460 386.8, 460 389.2, 460 393" fill="none" stroke="#8E857C" stroke-width="1.5"/><path d="M 460 400 L 455 393 L 465 393 Z" fill="#8E857C"/>
<rect x="370.0" y="466" width="180" height="42" rx="8" ry="8" fill="url(#grad_green)" stroke="#80B880" stroke-width="1.2"/><text x="460.0" y="492.0" font-family="sans-serif" font-size="12" font-weight="600" fill="#1E461E" text-anchor="middle">Linear</text>
<path d="M 460 442 C 460 452.8, 460 455.2, 460 459" fill="none" stroke="#8E857C" stroke-width="1.5"/><path d="M 460 466 L 455 459 L 465 459 Z" fill="#8E857C"/>
<rect x="370" y="532" width="180" height="48" rx="8" ry="8" fill="url(#grad_out)" stroke="#74B87C" stroke-width="1.2"/><text x="460.0" y="561.0" font-family="sans-serif" font-size="12" font-weight="600" fill="#163E16" text-anchor="middle">Output</text>
<path d="M 460 508 C 460 518.8, 460 521.2, 460 525" fill="none" stroke="#8E857C" stroke-width="1.5"/><path d="M 460 532 L 455 525 L 465 525 Z" fill="#8E857C"/>
</g></svg>