<?xml version="1.0" encoding="UTF-8" standalone="no"?>
<svg xmlns="http://www.w3.org/2000/svg" width="945" height="856" viewBox="0 0 945 856">
<rect width="100%" height="100%" fill="#FAF9F6"/>
<defs>
  <linearGradient id="grad_input" x1="0%" y1="0%" x2="0%" y2="100%">
    <stop offset="0%" stop-color="#E6ECEE"/><stop offset="100%" stop-color="#D1DFE4"/>
  </linearGradient>
  <linearGradient id="grad_decomp" x1="0%" y1="0%" x2="0%" y2="100%">
    <stop offset="0%" stop-color="#698C7F"/><stop offset="100%" stop-color="#527065"/>
  </linearGradient>
  <linearGradient id="grad_seasonal" x1="0%" y1="0%" x2="0%" y2="100%">
    <stop offset="0%" stop-color="#F7C9AB"/><stop offset="100%" stop-color="#EB9B65"/>
  </linearGradient>
  <linearGradient id="grad_trend" x1="0%" y1="0%" x2="0%" y2="100%">
    <stop offset="0%" stop-color="#E2D5F2"/><stop offset="100%" stop-color="#C3AFF1"/>
  </linearGradient>
  <linearGradient id="grad_linear" x1="0%" y1="0%" x2="0%" y2="100%">
    <stop offset="0%" stop-color="#DCF2DC"/><stop offset="100%" stop-color="#AEDCAE"/>
  </linearGradient>
  <linearGradient id="grad_add" x1="0%" y1="0%" x2="0%" y2="100%">
    <stop offset="0%" stop-color="#F9DCE2"/><stop offset="100%" stop-color="#F1B8C8"/>
  </linearGradient>
  <linearGradient id="grad_gate" x1="0%" y1="0%" x2="0%" y2="100%">
    <stop offset="0%" stop-color="#DCF2DC"/><stop offset="100%" stop-color="#AEDCAE"/>
  </linearGradient>
  <linearGradient id="grad_conv" x1="0%" y1="0%" x2="0%" y2="100%">
    <stop offset="0%" stop-color="#FCF1CD"/><stop offset="100%" stop-color="#F6CD71"/>
  </linearGradient>
  <linearGradient id="grad_output" x1="0%" y1="0%" x2="0%" y2="100%">
    <stop offset="0%" stop-color="#CCEBD0"/><stop offset="100%" stop-color="#A1DBA6"/>
  </linearGradient>
</defs>
<g>
  <!-- column centers: left 205, mid 475, right 745; all main boxes width 160 -->
  <!-- Input -->
  <rect x="395" y="64" width="160" height="48" rx="8" ry="8" fill="url(#grad_input)" stroke="#A9C1C9" stroke-width="1.2"/>
  <text x="475" y="92" font-family="sans-serif" font-size="12" font-weight="600" fill="#3E5158" text-anchor="middle">Input x</text>

  <!-- split bus from Input -->
  <path d="M 475 112 L 475 130" fill="none" stroke="#8E857C" stroke-width="1.5"/>
  <path d="M 205 130 L 745 130" fill="none" stroke="#8E857C" stroke-width="1.5"/>
  <path d="M 205 130 L 205 157" fill="none" stroke="#8E857C" stroke-width="1.5"/>
  <path d="M 205 157 L 200 150 L 210 150 Z" fill="#8E857C"/>
  <path d="M 475 130 L 475 157" fill="none" stroke="#8E857C" stroke-width="1.5"/>
  <path d="M 475 157 L 470 150 L 480 150 Z" fill="#8E857C"/>
  <path d="M 745 130 L 745 157" fill="none" stroke="#8E857C" stroke-width="1.5"/>
  <path d="M 745 157 L 740 150 L 750 150 Z" fill="#8E857C"/>

  <!-- ===== LEFT: FullChannelDecompLinear ===== -->
  <rect x="125" y="157" width="160" height="42" rx="8" ry="8" fill="url(#grad_decomp)" stroke="#40574F" stroke-width="1.2"/>
  <text x="205" y="177" font-family="sans-serif" font-size="10" font-weight="600" fill="#FFFFFF" text-anchor="middle">FullChannel</text>
  <text x="205" y="191" font-family="sans-serif" font-size="10" font-weight="600" fill="#FFFFFF" text-anchor="middle">DecompLinear</text>

  <!-- split to seasonal / trend (centers 163 & 247, each 72px wide inside 160 col) -->
  <path d="M 205 199 L 205 210" fill="none" stroke="#8E857C" stroke-width="1.5"/>
  <path d="M 163 210 L 247 210" fill="none" stroke="#8E857C" stroke-width="1.5"/>
  <path d="M 163 210 L 163 228" fill="none" stroke="#8E857C" stroke-width="1.5"/>
  <path d="M 163 228 L 158 221 L 168 221 Z" fill="#8E857C"/>
  <path d="M 247 210 L 247 228" fill="none" stroke="#8E857C" stroke-width="1.5"/>
  <path d="M 247 228 L 242 221 L 252 221 Z" fill="#8E857C"/>

  <rect x="127" y="228" width="72" height="38" rx="8" ry="8" fill="url(#grad_seasonal)" stroke="#CF7D44" stroke-width="1.2"/>
  <text x="163" y="251" font-family="sans-serif" font-size="11" font-weight="600" fill="#5D2B09" text-anchor="middle">Seasonal</text>
  <rect x="211" y="228" width="72" height="38" rx="8" ry="8" fill="url(#grad_trend)" stroke="#9E85CA" stroke-width="1.2"/>
  <text x="247" y="251" font-family="sans-serif" font-size="11" font-weight="600" fill="#4D337A" text-anchor="middle">Trend</text>

  <path d="M 163 266 L 163 284" fill="none" stroke="#8E857C" stroke-width="1.5"/>
  <path d="M 163 284 L 158 277 L 168 277 Z" fill="#8E857C"/>
  <path d="M 247 266 L 247 284" fill="none" stroke="#8E857C" stroke-width="1.5"/>
  <path d="M 247 284 L 242 277 L 252 277 Z" fill="#8E857C"/>

  <rect x="127" y="284" width="72" height="38" rx="8" ry="8" fill="url(#grad_linear)" stroke="#80B880" stroke-width="1.2"/>
  <text x="163" y="307" font-family="sans-serif" font-size="11" font-weight="600" fill="#1E461E" text-anchor="middle">Linear</text>
  <rect x="211" y="284" width="72" height="38" rx="8" ry="8" fill="url(#grad_linear)" stroke="#80B880" stroke-width="1.2"/>
  <text x="247" y="307" font-family="sans-serif" font-size="11" font-weight="600" fill="#1E461E" text-anchor="middle">Linear</text>

  <path d="M 163 322 L 163 332 L 182 332" fill="none" stroke="#8E857C" stroke-width="1.5"/>
  <path d="M 247 322 L 247 332 L 228 332" fill="none" stroke="#8E857C" stroke-width="1.5"/>
  <path d="M 182 332 L 182 348" fill="none" stroke="#8E857C" stroke-width="1.5"/>
  <path d="M 228 332 L 228 348" fill="none" stroke="#8E857C" stroke-width="1.5"/>
  <path d="M 182 348 L 177 341 L 187 341 Z" fill="#8E857C"/>
  <path d="M 228 348 L 223 341 L 233 341 Z" fill="#8E857C"/>

  <rect x="155" y="348" width="100" height="36" rx="8" ry="8" fill="url(#grad_add)" stroke="#D996A7" stroke-width="1.2"/>
  <text x="205" y="370" font-family="sans-serif" font-size="12" font-weight="600" fill="#863548" text-anchor="middle">Add</text>

  <path d="M 205 384 L 205 404" fill="none" stroke="#8E857C" stroke-width="1.5"/>
  <path d="M 205 404 L 200 397 L 210 397 Z" fill="#8E857C"/>

  <rect x="145" y="404" width="120" height="38" rx="8" ry="8" fill="url(#grad_linear)" stroke="#80B880" stroke-width="1.2"/>
  <text x="205" y="427" font-family="sans-serif" font-size="13" font-weight="bold" fill="#1E461E" text-anchor="middle">y<tspan dy="3" font-size="10">lin</tspan></text>

  <!-- ===== MID: Gate path ===== -->
  <rect x="395" y="157" width="160" height="42" rx="8" ry="8" fill="url(#grad_add)" stroke="#D996A7" stroke-width="1.2"/>
  <text x="475" y="182" font-family="sans-serif" font-size="12" font-weight="600" fill="#863548" text-anchor="middle">Last t</text>
  <path d="M 475 199 L 475 219" fill="none" stroke="#8E857C" stroke-width="1.5"/>
  <path d="M 475 219 L 470 212 L 480 212 Z" fill="#8E857C"/>
  <rect x="395" y="219" width="160" height="42" rx="8" ry="8" fill="url(#grad_gate)" stroke="#80B880" stroke-width="1.2"/>
  <text x="475" y="244" font-family="sans-serif" font-size="12" font-weight="600" fill="#1E461E" text-anchor="middle">Gate</text>
  <path d="M 475 261 L 475 281" fill="none" stroke="#8E857C" stroke-width="1.5"/>
  <path d="M 475 281 L 470 274 L 480 274 Z" fill="#8E857C"/>
  <rect x="395" y="281" width="160" height="42" rx="8" ry="8" fill="url(#grad_add)" stroke="#D996A7" stroke-width="1.2"/>
  <text x="475" y="306" font-family="sans-serif" font-size="12" font-weight="600" fill="#863548" text-anchor="middle">Sigmoid</text>
  <path d="M 475 323 L 475 343" fill="none" stroke="#8E857C" stroke-width="1.5"/>
  <path d="M 475 343 L 470 336 L 480 336 Z" fill="#8E857C"/>
  <rect x="435" y="343" width="80" height="36" rx="8" ry="8" fill="url(#grad_add)" stroke="#D996A7" stroke-width="1.2"/>
  <text x="475" y="365" font-family="sans-serif" font-size="12" font-weight="600" fill="#863548" text-anchor="middle">g</text>

  <!-- ===== RIGHT: TCN path ===== -->
  <rect x="665" y="157" width="160" height="42" rx="8" ry="8" fill="url(#grad_conv)" stroke="#DBA634" stroke-width="1.2"/>
  <text x="745" y="182" font-family="sans-serif" font-size="12" font-weight="600" fill="#644300" text-anchor="middle">TemporalBlock 1</text>
  <path d="M 745 199 L 745 219" fill="none" stroke="#8E857C" stroke-width="1.5"/>
  <path d="M 745 219 L 740 212 L 750 212 Z" fill="#8E857C"/>
  <rect x="665" y="219" width="160" height="42" rx="8" ry="8" fill="url(#grad_conv)" stroke="#DBA634" stroke-width="1.2"/>
  <text x="745" y="244" font-family="sans-serif" font-size="12" font-weight="600" fill="#644300" text-anchor="middle">TemporalBlock 2</text>
  <path d="M 745 261 L 745 281" fill="none" stroke="#8E857C" stroke-width="1.5"/>
  <path d="M 745 281 L 740 274 L 750 274 Z" fill="#8E857C"/>
  <rect x="665" y="281" width="160" height="42" rx="8" ry="8" fill="url(#grad_conv)" stroke="#DBA634" stroke-width="1.2"/>
  <text x="745" y="306" font-family="sans-serif" font-size="12" font-weight="600" fill="#644300" text-anchor="middle">Last t</text>
  <path d="M 745 323 L 745 343" fill="none" stroke="#8E857C" stroke-width="1.5"/>
  <path d="M 745 343 L 740 336 L 750 336 Z" fill="#8E857C"/>
  <rect x="665" y="343" width="160" height="42" rx="8" ry="8" fill="url(#grad_linear)" stroke="#80B880" stroke-width="1.2"/>
  <text x="745" y="368" font-family="sans-serif" font-size="12" font-weight="600" fill="#1E461E" text-anchor="middle">Linear</text>
  <path d="M 745 385 L 745 404" fill="none" stroke="#8E857C" stroke-width="1.5"/>
  <path d="M 745 404 L 740 397 L 750 397 Z" fill="#8E857C"/>
  <rect x="685" y="404" width="120" height="38" rx="8" ry="8" fill="url(#grad_linear)" stroke="#80B880" stroke-width="1.2"/>
  <text x="745" y="427" font-family="sans-serif" font-size="13" font-weight="bold" fill="#1E461E" text-anchor="middle">y<tspan dy="3" font-size="10">tcn</tspan></text>

  <!-- g ⊙ y_tcn merge -->
  <path d="M 475 379 L 475 460 L 610 460" fill="none" stroke="#8E857C" stroke-width="1.5"/>
  <path d="M 745 442 L 745 460 L 610 460" fill="none" stroke="#8E857C" stroke-width="1.5"/>
  <path d="M 610 460 L 610 478" fill="none" stroke="#8E857C" stroke-width="1.5"/>
  <path d="M 610 478 L 605 471 L 615 471 Z" fill="#8E857C"/>
  <rect x="540" y="478" width="140" height="42" rx="8" ry="8" fill="url(#grad_add)" stroke="#D996A7" stroke-width="1.2"/>
  <text x="610" y="503" font-family="sans-serif" font-size="13" font-weight="bold" fill="#863548" text-anchor="middle">g ⊙ y<tspan dy="3" font-size="10">tcn</tspan></text>

  <!-- final merge bus -->
  <path d="M 205 442 L 205 560 L 475 560" fill="none" stroke="#EB9D68" stroke-width="2"/>
  <path d="M 610 520 L 610 560 L 475 560" fill="none" stroke="#EB9D68" stroke-width="2"/>
  <path d="M 475 560 L 475 578" fill="none" stroke="#EB9D68" stroke-width="2"/>
  <path d="M 475 578 L 470 571 L 480 571 Z" fill="#EB9D68"/>

  <rect x="425" y="578" width="100" height="38" rx="8" ry="8" fill="url(#grad_add)" stroke="#D996A7" stroke-width="1.2"/>
  <text x="475" y="601" font-family="sans-serif" font-size="12" font-weight="600" fill="#863548" text-anchor="middle">Add</text>

  <path d="M 475 616 L 475 644" fill="none" stroke="#8E857C" stroke-width="1.5"/>
  <path d="M 475 644 L 470 637 L 480 637 Z" fill="#8E857C"/>
  <rect x="395" y="644" width="160" height="48" rx="8" ry="8" fill="url(#grad_output)" stroke="#74B87C" stroke-width="1.2"/>
  <text x="475" y="672" font-family="sans-serif" font-size="12" font-weight="600" fill="#163E16" text-anchor="middle">Output</text>
</g>
</svg>
