<?xml version="1.0" encoding="UTF-8" standalone="no"?>
<svg xmlns="http://www.w3.org/2000/svg" width="780" height="640" viewBox="0 0 780 640">
<rect width="100%" height="100%" fill="#FAF9F6"/>
<defs>

  <linearGradient id="grad_input" x1="0%" y1="0%" x2="0%" y2="100%">
    <stop offset="0%" stop-color="#E6ECEE"/><stop offset="100%" stop-color="#D1DFE4"/>
  </linearGradient>
  <linearGradient id="grad_conv" x1="0%" y1="0%" x2="0%" y2="100%">
    <stop offset="0%" stop-color="#FCF1CD"/><stop offset="100%" stop-color="#F6CD71"/>
  </linearGradient>
  <linearGradient id="grad_pink" x1="0%" y1="0%" x2="0%" y2="100%">
    <stop offset="0%" stop-color="#F9DCE2"/><stop offset="100%" stop-color="#F1B8C8"/>
  </linearGradient>
  <linearGradient id="grad_green" x1="0%" y1="0%" x2="0%" y2="100%">
    <stop offset="0%" stop-color="#DCF2DC"/><stop offset="100%" stop-color="#AEDCAE"/>
  </linearGradient>
  <linearGradient id="grad_out" x1="0%" y1="0%" x2="0%" y2="100%">
    <stop offset="0%" stop-color="#CCEBD0"/><stop offset="100%" stop-color="#A1DBA6"/>
  </linearGradient>

</defs>
<g>
<rect x="290" y="36" width="200" height="44" rx="8" ry="8" fill="url(#grad_input)" stroke="#A9C1C9" stroke-width="1.2"/><text x="390.0" y="63.0" font-family="sans-serif" font-size="12" font-weight="600" fill="#3E5158" text-anchor="middle">Input x</text>
<rect x="260.0" y="110" width="260" height="38" rx="8" ry="8" fill="url(#grad_conv)" stroke="#DBA634" stroke-width="1.2"/><text x="390.0" y="134.0" font-family="sans-serif" font-size="12" font-weight="600" fill="#644300" text-anchor="middle">CausalConv 1</text>
<text x="390" y="160" font-family="sans-serif" font-size="10" fill="#8E857C" text-anchor="middle">d=1</text>
<path d="M 390 80 L 390 103" fill="none" stroke="#8E857C" stroke-width="1.5"/><path d="M 390 110 L 385 103 L 395 103 Z" fill="#8E857C"/>
<rect x="260.0" y="178" width="260" height="38" rx="8" ry="8" fill="url(#grad_conv)" stroke="#DBA634" stroke-width="1.2"/><text x="390.0" y="202.0" font-family="sans-serif" font-size="12" font-weight="600" fill="#644300" text-anchor="middle">CausalConv 2</text>
<text x="390" y="228" font-family="sans-serif" font-size="10" fill="#8E857C" text-anchor="middle">d=2</text>
<path d="M 390 160 L 390 171" fill="none" stroke="#8E857C" stroke-width="1.5"/><path d="M 390 178 L 385 171 L 395 171 Z" fill="#8E857C"/>
<rect x="260.0" y="246" width="260" height="38" rx="8" ry="8" fill="url(#grad_conv)" stroke="#DBA634" stroke-width="1.2"/><text x="390.0" y="270.0" font-family="sans-serif" font-size="12" font-weight="600" fill="#644300" text-anchor="middle">CausalConv 3</text>
<text x="390" y="296" font-family="sans-serif" font-size="10" fill="#8E857C" text-anchor="middle">d=4</text>
<path d="M 390 228 L 390 239" fill="none" stroke="#8E857C" stroke-width="1.5"/><path d="M 390 246 L 385 239 L 395 239 Z" fill="#8E857C"/>
<rect x="260.0" y="314" width="260" height="38" rx="8" ry="8" fill="url(#grad_conv)" stroke="#DBA634" stroke-width="1.2"/><text x="390.0" y="338.0" font-family="sans-serif" font-size="12" font-weight="600" fill="#644300" text-anchor="middle">CausalConv 4</text>
<text x="390" y="364" font-family="sans-serif" font-size="10" fill="#8E857C" text-anchor="middle">d=8</text>
<path d="M 390 296 L 390 307" fill="none" stroke="#8E857C" stroke-width="1.5"/><path d="M 390 314 L 385 307 L 395 307 Z" fill="#8E857C"/>
<rect x="260.0" y="382" width="260" height="38" rx="8" ry="8" fill="url(#grad_conv)" stroke="#DBA634" stroke-width="1.2"/><text x="390.0" y="406.0" font-family="sans-serif" font-size="12" font-weight="600" fill="#644300" text-anchor="middle">CausalConv 5</text>
<text x="390" y="432" font-family="sans-serif" font-size="10" fill="#8E857C" text-anchor="middle">d=16</text>
<path d="M 390 364 L 390 375" fill="none" stroke="#8E857C" stroke-width="1.5"/><path d="M 390 382 L 385 375 L 395 375 Z" fill="#8E857C"/>
<rect x="270" y="450" width="240" height="40" rx="8" ry="8" fill="url(#grad_pink)" stroke="#D996A7" stroke-width="1.2"/><text x="390.0" y="475.0" font-family="sans-serif" font-size="12" font-weight="600" fill="#863548" text-anchor="middle">Context Adapter Linear</text>
<path d="M 390 432 L 390 443" fill="none" stroke="#8E857C" stroke-width="1.5"/><path d="M 390 450 L 385 443 L 395 443 Z" fill="#8E857C"/>
<rect x="260.0" y="508" width="260" height="40" rx="8" ry="8" fill="url(#grad_green)" stroke="#80B880" stroke-width="1.2"/><text x="390.0" y="533.0" font-family="sans-serif" font-size="12" font-weight="600" fill="#1E461E" text-anchor="middle">MLP Decoder</text>
<path d="M 390 490 L 390 501" fill="none" stroke="#8E857C" stroke-width="1.5"/><path d="M 390 508 L 385 501 L 395 501 Z" fill="#8E857C"/>
<rect x="290" y="566" width="200" height="44" rx="8" ry="8" fill="url(#grad_out)" stroke="#74B87C" stroke-width="1.2"/><text x="390.0" y="593.0" font-family="sans-serif" font-size="12" font-weight="600" fill="#163E16" text-anchor="middle">Output</text>
<path d="M 390 548 L 390 559" fill="none" stroke="#8E857C" stroke-width="1.5"/><path d="M 390 566 L 385 559 L 395 559 Z" fill="#8E857C"/>
</g></svg>